HIERARCHY
ROOT pelvis
{
  OFFSET 0 100 0
  CHANNELS 6 Xposition Yposition Zposition Zrotation Xrotation Yrotation
  JOINT pelvis_right_femur
  {
    OFFSET -10.78128 -3.44521 -0.5502486
    CHANNELS 3 Zrotation Xrotation Yrotation
    JOINT right_femur_tibia
    {
      OFFSET -0.8047443 -44.0398 -0.1307829
      CHANNELS 3 Zrotation Xrotation Yrotation
      JOINT right_tibia_foot
      {
        OFFSET 3.006224 -47.83518 -5
        CHANNELS 3 Zrotation Xrotation Yrotation
        End Site
        {
          OFFSET 0 -5 15
        }
      }
    }
  }
  JOINT pelvis_left_femur
  {
    OFFSET 10.78128 -3.44521 -0.5502486
    CHANNELS 3 Zrotation Xrotation Yrotation
    JOINT left_femur_tibia
    {
      OFFSET 0.8047443 -44.0398 -0.1307829
      CHANNELS 3 Zrotation Xrotation Yrotation
      JOINT left_tibia_foot
      {
        OFFSET -4.370144 -48.10324 -4.275266
        CHANNELS 3 Zrotation Xrotation Yrotation
        End Site
        {
          OFFSET 0 -5 15
        }
      }
    }
  }
  JOINT pelvis_spine1
  {
    OFFSET 0 6.468898 -3.129235
    CHANNELS 3 Zrotation Xrotation Yrotation
    JOINT spine1
    {
      OFFSET 0 23.15396 4.99043
      CHANNELS 3 Zrotation Xrotation Yrotation
      JOINT spine2
      {
        OFFSET 0 20.79997 -5.064912
        CHANNELS 3 Zrotation Xrotation Yrotation
        JOINT neck
        {
          OFFSET 0 14.38658 9.616178
          CHANNELS 3 Zrotation Xrotation Yrotation
          End Site
          {
            OFFSET 0 20 0
          }
        }
      }
      JOINT right_manubrium
      {
        OFFSET -5.722621 16.35077 3.967754
        CHANNELS 3 Zrotation Xrotation Yrotation
        JOINT right_clavicle
        {
          OFFSET -13.16364 1.694482 -4.693211
          CHANNELS 3 Zrotation Xrotation Yrotation
          JOINT right_humerus
          {
            OFFSET -28.5034 -0.3100689 -2.792744
            CHANNELS 3 Zrotation Xrotation Yrotation
            JOINT right_radius
            {
              OFFSET -25.15693 0.02248979 -1.271978
              CHANNELS 3 Zrotation Xrotation Yrotation
              End Site
              {
                OFFSET -15 0 0
              }
            }
          }
        }
      }
      JOINT left_manubrium
      {
        OFFSET 5.722621 16.35077 3.967754
        CHANNELS 3 Zrotation Xrotation Yrotation
        JOINT left_clavicle
        {
          OFFSET 13.16364 1.694482 -4.693211
          CHANNELS 3 Zrotation Xrotation Yrotation
          JOINT left_humerus
          {
            OFFSET 29.39168 -1.063119 -2.237045
            CHANNELS 3 Zrotation Xrotation Yrotation
            JOINT left_radius
            {
              OFFSET 24.59957 -0.9528479 0.9047498
              CHANNELS 3 Zrotation Xrotation Yrotation
              End Site
              {
                OFFSET 15 -0 -0
              }
            }
          }
        }
      }
    }
  }
}
MOTION
Frames: 17
Frame Time: 0.0416666666667
-1083.476 105.724 2618.772 -6.185475 -3.352936 -57.81483 5.857415 12.97122 1.683685 -0 8.86296 -0 -8.72148 -14.37157 -1.79288 3.534196 -22.63465 -2.314502 -0 24.4415 -0 -0.54796 -4.005491 17.90714 1.874405 -3.43613 8.814679 -0.09152871 17.14956 -6.065238 1.27858 18.00469 0.7351888 -1.263743 -18.98354 4.035385 -4.280968 -34.491 12.52226 90.17131 17.44336 -6.865319 -0 0 32.66332 -23.5456 18.09095 18.71329 -1.034907 -20.37204 -7.883854 -94.57088 10.09659 43.36804 0 0 -9.93254 2.556995 12.66371 11.30818
-1087.906 104.6151 2622.379 -5.700283 -2.713072 -58.44863 5.140384 15.65274 1.698405 -0 10.1575 -0 -8.296808 -15.7843 -1.14318 3.671791 -23.85492 -2.832281 -0 16.85906 -0 -0.7998706 -3.677116 18.36446 1.667413 -3.457183 8.740164 -0.4196338 17.14242 -5.570306 1.262594 18.1514 0.965718 -0.8452605 -18.5673 3.933832 -3.813199 -34.30405 12.38868 89.47389 17.32267 -6.070034 -0 0 32.99491 -24.32945 18.02764 19.51474 -0.7500146 -20.21301 -8.163441 -95.29809 10.23176 43.72686 0 0 -8.756082 2.153345 12.47188 12.20017
-1092.568 103.4845 2626.272 -5.357951 -2.550057 -59.05596 4.073305 18.1373 1.547528 -0 12.68357 -0 -7.905905 -15.23745 -0.3802118 2.91837 -23.90727 -3.986537 -0 12.08624 -0 -1.356982 -3.777572 18.7997 1.455946 -3.392056 8.577722 -0.6936779 16.99821 -5.119084 1.282898 18.46675 1.24488 -0.4476833 -18.30096 3.947267 -3.488518 -33.84813 12.21114 89.01438 17.29511 -5.580106 -0 0 32.71955 -24.95784 17.70165 19.92744 -0.3744814 -20.09904 -8.319406 -95.84187 10.52631 43.49185 0 0 -7.684493 2.015351 12.48294 12.6113
-1097.519 102.5653 2630.463 -5.291619 -2.933425 -59.5851 2.796791 20.19875 1.219181 -0 16.73083 -0 -7.706935 -12.44931 0.3797207 1.43278 -22.80917 -5.554917 -0 10.29911 -0 -2.040731 -4.378269 19.22303 1.259877 -3.271687 8.364613 -0.8877646 16.77005 -4.764073 1.317321 18.86522 1.540578 -0.09289682 -18.16201 4.034401 -3.278461 -33.22816 12.03122 88.76442 17.3759 -5.392633 -0 0 31.99801 -25.38471 17.22761 19.98987 0.02510056 -20.0603 -8.378147 -96.15208 10.89096 42.80954 0 0 -6.856497 2.123878 12.64227 12.57893
-1102.751 102.0959 2634.906 -5.516565 -3.754873 -59.95314 1.483391 21.35458 0.7702157 -0 22.53227 -0 -7.870002 -7.562062 1.04278 -0.4814742 -20.5832 -7.257686 -0 11.09804 -0 -2.5689 -5.397741 19.59313 1.09205 -3.130457 8.125902 -0.9923762 16.51528 -4.538858 1.346492 19.27571 1.833115 0.2151575 -18.12619 4.155054 -3.150928 -32.52578 11.88145 88.70475 17.55065 -5.515035 -0 0 30.96108 -25.61247 16.69743 19.76551 0.4087449 -20.13714 -8.387374 -96.19612 11.24816 41.79018 0 0 -6.411104 2.456906 12.89153 12.15956
-1108.156 102.26 2639.474 -5.955601 -4.767105 -60.06804 0.3278956 20.96165 0.2993298 -0 29.9823 -0 -8.484279 -1.24784 1.562142 -2.432317 -17.3006 -8.819595 -0 13.5463 -0 -2.682828 -6.658371 19.87195 0.9611615 -2.994159 7.873424 -1.006301 16.27704 -4.46139 1.360428 19.65422 2.11051 0.4745333 -18.18504 4.285198 -3.092448 -31.79036 11.77896 88.84159 17.78184 -5.969335 -0 0 29.68285 -25.65753 16.1626 19.30449 0.7591291 -20.36144 -8.388519 -95.95904 11.55579 40.4919 0 0 -6.465592 2.990838 13.18412 11.40968
-1113.54 103.0965 2643.978 -6.477195 -5.651302 -59.86853 -0.4735274 18.4843 -0.1080015 -0 38.22966 -0 -9.472301 5.26229 1.915149 -4.027296 -13.17047 -10.03748 -0 16.29531 -0 -2.318767 -7.990758 20.04252 0.8750662 -2.879118 7.612787 -0.9319189 16.082 -4.539511 1.358511 19.97751 2.36142 0.6761653 -18.34568 4.416981 -3.111267 -31.05175 11.72907 89.20182 18.01511 -6.781048 -0 0 28.20297 -25.53386 15.64284 18.63854 1.070264 -20.74667 -8.405539 -95.44153 11.80297 38.94303 0 0 -7.108466 3.693185 13.48388 10.38809
-1118.684 104.433 2648.233 -6.943538 -6.147005 -59.36515 -0.7993842 13.89172 -0.4344514 -0 45.51819 -0 -10.55019 10.45671 2.038431 -5.015357 -8.587236 -10.84644 -0 18.0089 -0 -1.714372 -9.348773 20.07176 0.8409534 -2.795025 7.350809 -0.7766464 15.94252 -4.770091 1.346901 20.23493 2.572263 0.8043964 -18.61846 4.552711 -3.22782 -30.33482 11.72976 89.8115 18.19083 -7.952324 -0 0 26.56295 -25.25705 15.14115 17.79575 1.339529 -21.28167 -8.442351 -94.66441 11.99421 37.1757 0 0 -8.374289 4.515854 13.76365 9.163887
-1123.442 105.9222 2652.139 -7.252966 -6.189775 -58.64864 -0.6941085 7.844754 -0.7484832 -0 49.76939 -0 -11.32676 13.19247 1.82379 -5.398068 -4.032528 -11.3186 -0 17.98136 -0 -1.278089 -10.82916 19.88329 0.8619241 -2.745898 7.098538 -0.5567485 15.85672 -5.133424 1.335101 20.42586 2.730814 0.8456223 -19.00144 4.69863 -3.458488 -29.66384 11.77397 90.66725 18.26414 -9.433108 -0 0 24.82885 -24.85526 14.65458 16.8157 1.566592 -21.92756 -8.484027 -93.67604 12.13532 35.24801 0 0 -10.20463 5.39825 14.00922 7.8149
-1127.799 107.1803 2655.7 -7.349119 -5.914537 -57.85309 -0.3565045 1.351087 -1.162979 -0 49.70972 -0 -11.55225 13.27124 1.246013 -5.388646 0.1259266 -11.56898 -0 16.41556 -0 -1.259997 -12.53992 19.41111 0.9331616 -2.728591 6.86801 -0.2973405 15.80883 -5.591423 1.332472 20.56054 2.832629 0.7983323 -19.47299 4.860718 -3.801716 -29.05592 11.85028 91.72063 18.22323 -11.1161 -0 0 23.08546 -24.37196 14.179 15.75109 1.756454 -22.62364 -8.503384 -92.55105 12.22932 33.24087 0 0 -12.43603 6.281477 14.22257 6.413713
-1131.846 107.9246 2658.989 -7.204667 -5.511182 -57.10288 -0.009111556 -4.806622 -1.753776 -0 45.49022 -0 -11.25963 11.39167 0.4462097 -5.248246 3.74482 -11.66281 -0 14.09024 -0 -1.565603 -14.45918 18.68046 1.041981 -2.732644 6.666617 -0.0265256 15.77505 -6.095214 1.345687 20.65794 2.883217 0.675704 -19.99778 5.04241 -4.235704 -28.51501 11.94432 92.88931 18.09005 -12.86491 -0 0 21.41263 -23.85652 13.71145 14.6581 1.919914 -23.30299 -8.473238 -91.37597 12.28121 31.23824 0 0 -14.84228 7.121875 14.41707 5.016068
-1135.729 108.028 2662.101 -6.811666 -5.099419 -56.47876 0.2201555 -10.29717 -2.506809 -0 38.29489 -0 -10.64313 8.608302 -0.3686938 -5.15795 6.848202 -11.6048 -0 11.8375 -0 -1.876771 -16.43597 17.81604 1.17191 -2.744188 6.495448 0.2316098 15.73369 -6.597173 1.37752 20.73854 2.894009 0.4999204 -20.5379 5.242815 -4.725946 -28.03597 12.04164 94.08226 17.90389 -14.55094 -0 0 19.87072 -23.35247 13.25374 13.58851 2.068506 -23.90901 -8.378333 -90.23205 12.30164 29.31522 0 0 -17.20017 7.892441 14.60693 3.664326
-1139.604 107.5044 2665.134 -6.184779 -4.713627 -56.0108 0.3215932 -15.09091 -3.328506 -0 29.60714 -0 -9.893158 5.866736 -1.048279 -5.195035 9.517857 -11.37586 -0 10.28277 -0 -1.869616 -18.27113 16.98459 1.307178 -2.751435 6.352489 0.4604656 15.67317 -7.059242 1.426514 20.81658 2.876875 0.2950539 -21.05915 5.455097 -5.233586 -27.61493 12.13074 95.21737 17.70407 -16.07299 -0 0 18.50451 -22.89182 12.81607 12.5888 2.20813 -24.40454 -8.220763 -89.18596 12.30423 27.54185 0 0 -19.33228 8.575555 14.79883 2.398949
-1143.617 106.4744 2668.175 -5.368236 -4.340801 -55.68644 0.3738385 -19.23382 -4.077504 -0 20.81093 -0 -9.152233 3.847359 -1.524235 -5.359291 11.8234 -10.96629 -0 9.849056 -0 -1.352311 -19.76075 16.33037 1.435481 -2.748076 6.236887 0.6510624 15.59427 -7.455717 1.487398 20.89598 2.840684 0.08240379 -21.53241 5.666243 -5.721019 -27.25716 12.20468 96.22759 17.5211 -17.3594 -0 0 17.35363 -22.49442 12.4176 11.70127 2.33574 -24.77237 -8.018075 -88.28821 12.30001 25.99116 0 0 -21.11756 9.156206 14.98965 1.265032
-1147.901 105.137 2671.297 -4.448881 -3.953413 -55.46347 0.5167774 -22.68801 -4.58217 -0 13.13853 -0 -8.541461 2.95468 -1.788961 -5.593499 13.78936 -10.39893 -0 10.83154 -0 -0.3444997 -20.68971 15.91993 1.549321 -2.733541 6.15163 0.8008141 15.50772 -7.772689 1.552473 20.9706 2.789556 -0.1226977 -21.93411 5.859045 -6.15642 -26.97986 12.26111 97.06178 17.37486 -18.36221 -0 0 16.45994 -22.16885 12.08403 10.96321 2.439407 -25.01007 -7.796231 -87.57502 12.29387 24.74274 0 0 -22.48284 9.618892 15.16913 0.3108509
-1152.56 103.7426 2674.553 -3.573939 -3.529119 -55.28821 0.9296677 -25.24578 -4.660051 -0 7.672038 -0 -8.178198 3.26119 -1.879634 -5.789214 15.37404 -9.743711 -0 13.42224 -0 0.8620712 -20.82347 15.68959 1.646509 -2.711079 6.104185 0.9119557 15.42922 -8.005901 1.61382 21.02723 2.721857 -0.3136217 -22.24758 6.015841 -6.518097 -26.81108 12.30118 97.68468 17.276 -19.04947 -0 0 15.86982 -21.91353 11.84378 10.40447 2.500338 -25.1216 -7.580411 -87.07129 12.28426 23.88071 0 0 -23.38735 9.947059 15.32488 -0.4177435
-1157.645 102.5558 2677.958 -2.950188 -3.066982 -55.12511 1.775738 -26.54419 -4.183784 -0 5.157468 -0 -8.151358 4.388839 -1.872242 -5.801706 16.44801 -9.098786 -0 17.67851 -0 1.74466 -19.94112 15.43618 1.729798 -2.685247 6.105434 0.9898571 15.37428 -8.15799 1.665497 21.04967 2.630171 -0.4938782 -22.4643 6.122552 -6.797237 -26.78563 12.3279 98.07633 17.22854 -19.39887 -0 0 15.63208 -21.71843 11.72424 10.04551 2.495852 -25.10945 -7.387069 -86.79313 12.26547 23.48722 0 0 -23.80862 10.12363 15.44704 -0.8826705
